<svg width="235" height="196" viewBox="0 0 235 196" fill="none" xmlns="http://www.w3.org/2000/svg">
<g clip-path="url(#clip0_203_171)">
<rect width="235" height="196" rx="32" fill="#F6F6FA"/>
<circle cx="117.5" cy="56" r="24" fill="#29295B"/>
<g clip-path="url(#clip1_203_171)">
<path d="M128.5 55H126.5V53C126.5 52.4477 126.052 52 125.5 52C124.948 52 124.5 52.4477 124.5 53V55H122.5C121.948 55 121.5 55.4477 121.5 56C121.5 56.5523 121.948 57 122.5 57H124.5V59C124.5 59.5523 124.948 60 125.5 60C126.052 60 126.5 59.5523 126.5 59V57H128.5C129.052 57 129.5 56.5523 129.5 56C129.5 55.4477 129.052 55 128.5 55Z" fill="white"/>
<path d="M114.5 56C117.814 56 120.5 53.3137 120.5 50C120.5 46.6863 117.814 44 114.5 44C111.186 44 108.5 46.6863 108.5 50C108.5 53.3137 111.186 56 114.5 56Z" fill="white"/>
<path d="M114.5 58C109.532 58.0055 105.506 62.0317 105.5 67C105.5 67.5523 105.948 68 106.5 68H122.5C123.052 68 123.5 67.5523 123.5 67C123.494 62.0317 119.468 58.0055 114.5 58Z" fill="white"/>
</g>
<path d="M34.4296 126L31.3496 120.56H30.0296V126H27.2296V112.04H32.4696C33.5496 112.04 34.4696 112.233 35.2296 112.62C35.9896 112.993 36.5563 113.507 36.9296 114.16C37.3163 114.8 37.5096 115.52 37.5096 116.32C37.5096 117.24 37.2429 118.073 36.7096 118.82C36.1763 119.553 35.3829 120.06 34.3296 120.34L37.6696 126H34.4296ZM30.0296 118.46H32.3696C33.1296 118.46 33.6963 118.28 34.0696 117.92C34.4429 117.547 34.6296 117.033 34.6296 116.38C34.6296 115.74 34.4429 115.247 34.0696 114.9C33.6963 114.54 33.1296 114.36 32.3696 114.36H30.0296V118.46ZM50.3421 120.22C50.3421 120.62 50.3154 120.98 50.2621 121.3H42.1621C42.2288 122.1 42.5088 122.727 43.0021 123.18C43.4954 123.633 44.1021 123.86 44.8221 123.86C45.8621 123.86 46.6021 123.413 47.0421 122.52H50.0621C49.7421 123.587 49.1288 124.467 48.2221 125.16C47.3154 125.84 46.2021 126.18 44.8821 126.18C43.8154 126.18 42.8554 125.947 42.0021 125.48C41.1621 125 40.5021 124.327 40.0221 123.46C39.5554 122.593 39.3221 121.593 39.3221 120.46C39.3221 119.313 39.5554 118.307 40.0221 117.44C40.4888 116.573 41.1421 115.907 41.9821 115.44C42.8221 114.973 43.7888 114.74 44.8821 114.74C45.9354 114.74 46.8754 114.967 47.7021 115.42C48.5421 115.873 49.1888 116.52 49.6421 117.36C50.1088 118.187 50.3421 119.14 50.3421 120.22ZM47.4421 119.42C47.4288 118.7 47.1688 118.127 46.6621 117.7C46.1554 117.26 45.5354 117.04 44.8021 117.04C44.1088 117.04 43.5221 117.253 43.0421 117.68C42.5754 118.093 42.2888 118.673 42.1821 119.42H47.4421ZM56.6259 126.18C55.7192 126.18 54.9059 126.02 54.1859 125.7C53.4659 125.367 52.8925 124.92 52.4659 124.36C52.0525 123.8 51.8259 123.18 51.7859 122.5H54.6059C54.6592 122.927 54.8659 123.28 55.2259 123.56C55.5992 123.84 56.0592 123.98 56.6059 123.98C57.1392 123.98 57.5525 123.873 57.8459 123.66C58.1525 123.447 58.3059 123.173 58.3059 122.84C58.3059 122.48 58.1192 122.213 57.7459 122.04C57.3859 121.853 56.8059 121.653 56.0059 121.44C55.1792 121.24 54.4992 121.033 53.9659 120.82C53.4459 120.607 52.9925 120.28 52.6059 119.84C52.2325 119.4 52.0459 118.807 52.0459 118.06C52.0459 117.447 52.2192 116.887 52.5659 116.38C52.9259 115.873 53.4325 115.473 54.0859 115.18C54.7525 114.887 55.5325 114.74 56.4259 114.74C57.7459 114.74 58.7992 115.073 59.5859 115.74C60.3725 116.393 60.8059 117.28 60.8859 118.4H58.2059C58.1659 117.96 57.9792 117.613 57.6459 117.36C57.3259 117.093 56.8925 116.96 56.3459 116.96C55.8392 116.96 55.4459 117.053 55.1659 117.24C54.8992 117.427 54.7659 117.687 54.7659 118.02C54.7659 118.393 54.9525 118.68 55.3259 118.88C55.6992 119.067 56.2792 119.26 57.0659 119.46C57.8659 119.66 58.5259 119.867 59.0459 120.08C59.5659 120.293 60.0125 120.627 60.3859 121.08C60.7725 121.52 60.9725 122.107 60.9859 122.84C60.9859 123.48 60.8059 124.053 60.4459 124.56C60.0992 125.067 59.5925 125.467 58.9259 125.76C58.2725 126.04 57.5059 126.18 56.6259 126.18ZM66.0843 116.52C66.4443 116.013 66.9376 115.593 67.5643 115.26C68.2043 114.913 68.931 114.74 69.7443 114.74C70.691 114.74 71.5443 114.973 72.3043 115.44C73.0776 115.907 73.6843 116.573 74.1243 117.44C74.5776 118.293 74.8043 119.287 74.8043 120.42C74.8043 121.553 74.5776 122.56 74.1243 123.44C73.6843 124.307 73.0776 124.98 72.3043 125.46C71.5443 125.94 70.691 126.18 69.7443 126.18C68.931 126.18 68.211 126.013 67.5843 125.68C66.971 125.347 66.471 124.927 66.0843 124.42V131.28H63.2843V114.92H66.0843V116.52ZM71.9443 120.42C71.9443 119.753 71.8043 119.18 71.5243 118.7C71.2576 118.207 70.8976 117.833 70.4443 117.58C70.0043 117.327 69.5243 117.2 69.0043 117.2C68.4976 117.2 68.0176 117.333 67.5643 117.6C67.1243 117.853 66.7643 118.227 66.4843 118.72C66.2176 119.213 66.0843 119.793 66.0843 120.46C66.0843 121.127 66.2176 121.707 66.4843 122.2C66.7643 122.693 67.1243 123.073 67.5643 123.34C68.0176 123.593 68.4976 123.72 69.0043 123.72C69.5243 123.72 70.0043 123.587 70.4443 123.32C70.8976 123.053 71.2576 122.673 71.5243 122.18C71.8043 121.687 71.9443 121.1 71.9443 120.42ZM81.759 126.18C80.6923 126.18 79.7323 125.947 78.879 125.48C78.0257 125 77.3523 124.327 76.859 123.46C76.379 122.593 76.139 121.593 76.139 120.46C76.139 119.327 76.3857 118.327 76.879 117.46C77.3857 116.593 78.0723 115.927 78.939 115.46C79.8057 114.98 80.7723 114.74 81.839 114.74C82.9057 114.74 83.8723 114.98 84.739 115.46C85.6057 115.927 86.2857 116.593 86.779 117.46C87.2857 118.327 87.539 119.327 87.539 120.46C87.539 121.593 87.279 122.593 86.759 123.46C86.2523 124.327 85.559 125 84.679 125.48C83.8123 125.947 82.839 126.18 81.759 126.18ZM81.759 123.74C82.2657 123.74 82.739 123.62 83.179 123.38C83.6323 123.127 83.9923 122.753 84.259 122.26C84.5257 121.767 84.659 121.167 84.659 120.46C84.659 119.407 84.379 118.6 83.819 118.04C83.2723 117.467 82.599 117.18 81.799 117.18C80.999 117.18 80.3257 117.467 79.779 118.04C79.2457 118.6 78.979 119.407 78.979 120.46C78.979 121.513 79.239 122.327 79.759 122.9C80.2923 123.46 80.959 123.74 81.759 123.74ZM95.7329 114.76C97.0529 114.76 98.1196 115.18 98.9329 116.02C99.7462 116.847 100.153 118.007 100.153 119.5V126H97.3529V119.88C97.3529 119 97.1329 118.327 96.6929 117.86C96.2529 117.38 95.6529 117.14 94.8929 117.14C94.1196 117.14 93.5062 117.38 93.0529 117.86C92.6129 118.327 92.3929 119 92.3929 119.88V126H89.5929V114.92H92.3929V116.3C92.7662 115.82 93.2396 115.447 93.8129 115.18C94.3996 114.9 95.0396 114.76 95.7329 114.76ZM107.056 126.18C106.149 126.18 105.336 126.02 104.616 125.7C103.896 125.367 103.322 124.92 102.896 124.36C102.482 123.8 102.256 123.18 102.216 122.5H105.036C105.089 122.927 105.296 123.28 105.656 123.56C106.029 123.84 106.489 123.98 107.036 123.98C107.569 123.98 107.982 123.873 108.276 123.66C108.582 123.447 108.736 123.173 108.736 122.84C108.736 122.48 108.549 122.213 108.176 122.04C107.816 121.853 107.236 121.653 106.436 121.44C105.609 121.24 104.929 121.033 104.396 120.82C103.876 120.607 103.422 120.28 103.036 119.84C102.662 119.4 102.476 118.807 102.476 118.06C102.476 117.447 102.649 116.887 102.996 116.38C103.356 115.873 103.862 115.473 104.516 115.18C105.182 114.887 105.962 114.74 106.856 114.74C108.176 114.74 109.229 115.073 110.016 115.74C110.802 116.393 111.236 117.28 111.316 118.4H108.636C108.596 117.96 108.409 117.613 108.076 117.36C107.756 117.093 107.322 116.96 106.776 116.96C106.269 116.96 105.876 117.053 105.596 117.24C105.329 117.427 105.196 117.687 105.196 118.02C105.196 118.393 105.382 118.68 105.756 118.88C106.129 119.067 106.709 119.26 107.496 119.46C108.296 119.66 108.956 119.867 109.476 120.08C109.996 120.293 110.442 120.627 110.816 121.08C111.202 121.52 111.402 122.107 111.416 122.84C111.416 123.48 111.236 124.053 110.876 124.56C110.529 125.067 110.022 125.467 109.356 125.76C108.702 126.04 107.936 126.18 107.056 126.18ZM112.994 120.42C112.994 119.3 113.214 118.307 113.654 117.44C114.107 116.573 114.714 115.907 115.474 115.44C116.247 114.973 117.107 114.74 118.054 114.74C118.881 114.74 119.601 114.907 120.214 115.24C120.841 115.573 121.341 115.993 121.714 116.5V114.92H124.534V126H121.714V124.38C121.354 124.9 120.854 125.333 120.214 125.68C119.587 126.013 118.861 126.18 118.034 126.18C117.101 126.18 116.247 125.94 115.474 125.46C114.714 124.98 114.107 124.307 113.654 123.44C113.214 122.56 112.994 121.553 112.994 120.42ZM121.714 120.46C121.714 119.78 121.581 119.2 121.314 118.72C121.047 118.227 120.687 117.853 120.234 117.6C119.781 117.333 119.294 117.2 118.774 117.2C118.254 117.2 117.774 117.327 117.334 117.58C116.894 117.833 116.534 118.207 116.254 118.7C115.987 119.18 115.854 119.753 115.854 120.42C115.854 121.087 115.987 121.673 116.254 122.18C116.534 122.673 116.894 123.053 117.334 123.32C117.787 123.587 118.267 123.72 118.774 123.72C119.294 123.72 119.781 123.593 120.234 123.34C120.687 123.073 121.047 122.7 121.314 122.22C121.581 121.727 121.714 121.14 121.714 120.46ZM130.069 116.54C130.429 116.007 130.922 115.573 131.549 115.24C132.189 114.907 132.915 114.74 133.729 114.74C134.675 114.74 135.529 114.973 136.289 115.44C137.062 115.907 137.669 116.573 138.109 117.44C138.562 118.293 138.789 119.287 138.789 120.42C138.789 121.553 138.562 122.56 138.109 123.44C137.669 124.307 137.062 124.98 136.289 125.46C135.529 125.94 134.675 126.18 133.729 126.18C132.902 126.18 132.175 126.02 131.549 125.7C130.935 125.367 130.442 124.94 130.069 124.42V126H127.269V111.2H130.069V116.54ZM135.929 120.42C135.929 119.753 135.789 119.18 135.509 118.7C135.242 118.207 134.882 117.833 134.429 117.58C133.989 117.327 133.509 117.2 132.989 117.2C132.482 117.2 132.002 117.333 131.549 117.6C131.109 117.853 130.749 118.227 130.469 118.72C130.202 119.213 130.069 119.793 130.069 120.46C130.069 121.127 130.202 121.707 130.469 122.2C130.749 122.693 131.109 123.073 131.549 123.34C132.002 123.593 132.482 123.72 132.989 123.72C133.509 123.72 133.989 123.587 134.429 123.32C134.882 123.053 135.242 122.673 135.509 122.18C135.789 121.687 135.929 121.1 135.929 120.42ZM142.243 113.6C141.75 113.6 141.337 113.447 141.003 113.14C140.683 112.82 140.523 112.427 140.523 111.96C140.523 111.493 140.683 111.107 141.003 110.8C141.337 110.48 141.75 110.32 142.243 110.32C142.737 110.32 143.143 110.48 143.463 110.8C143.797 111.107 143.963 111.493 143.963 111.96C143.963 112.427 143.797 112.82 143.463 113.14C143.143 113.447 142.737 113.6 142.243 113.6ZM143.623 114.92V126H140.823V114.92H143.623ZM149.19 111.2V126H146.39V111.2H149.19ZM153.376 113.6C152.883 113.6 152.47 113.447 152.136 113.14C151.816 112.82 151.656 112.427 151.656 111.96C151.656 111.493 151.816 111.107 152.136 110.8C152.47 110.48 152.883 110.32 153.376 110.32C153.87 110.32 154.276 110.48 154.596 110.8C154.93 111.107 155.096 111.493 155.096 111.96C155.096 112.427 154.93 112.82 154.596 113.14C154.276 113.447 153.87 113.6 153.376 113.6ZM154.756 114.92V126H151.956V114.92H154.756ZM156.803 120.42C156.803 119.3 157.023 118.307 157.463 117.44C157.916 116.573 158.529 115.907 159.303 115.44C160.076 114.973 160.936 114.74 161.883 114.74C162.603 114.74 163.289 114.9 163.943 115.22C164.596 115.527 165.116 115.94 165.503 116.46V111.2H168.343V126H165.503V124.36C165.156 124.907 164.669 125.347 164.043 125.68C163.416 126.013 162.689 126.18 161.863 126.18C160.929 126.18 160.076 125.94 159.303 125.46C158.529 124.98 157.916 124.307 157.463 123.44C157.023 122.56 156.803 121.553 156.803 120.42ZM165.523 120.46C165.523 119.78 165.389 119.2 165.123 118.72C164.856 118.227 164.496 117.853 164.043 117.6C163.589 117.333 163.103 117.2 162.583 117.2C162.063 117.2 161.583 117.327 161.143 117.58C160.703 117.833 160.343 118.207 160.063 118.7C159.796 119.18 159.663 119.753 159.663 120.42C159.663 121.087 159.796 121.673 160.063 122.18C160.343 122.673 160.703 123.053 161.143 123.32C161.596 123.587 162.076 123.72 162.583 123.72C163.103 123.72 163.589 123.593 164.043 123.34C164.496 123.073 164.856 122.7 165.123 122.22C165.389 121.727 165.523 121.14 165.523 120.46ZM170.357 120.42C170.357 119.3 170.577 118.307 171.017 117.44C171.471 116.573 172.077 115.907 172.837 115.44C173.611 114.973 174.471 114.74 175.417 114.74C176.244 114.74 176.964 114.907 177.577 115.24C178.204 115.573 178.704 115.993 179.077 116.5V114.92H181.897V126H179.077V124.38C178.717 124.9 178.217 125.333 177.577 125.68C176.951 126.013 176.224 126.18 175.397 126.18C174.464 126.18 173.611 125.94 172.837 125.46C172.077 124.98 171.471 124.307 171.017 123.44C170.577 122.56 170.357 121.553 170.357 120.42ZM179.077 120.46C179.077 119.78 178.944 119.2 178.677 118.72C178.411 118.227 178.051 117.853 177.597 117.6C177.144 117.333 176.657 117.2 176.137 117.2C175.617 117.2 175.137 117.327 174.697 117.58C174.257 117.833 173.897 118.207 173.617 118.7C173.351 119.18 173.217 119.753 173.217 120.42C173.217 121.087 173.351 121.673 173.617 122.18C173.897 122.673 174.257 123.053 174.697 123.32C175.151 123.587 175.631 123.72 176.137 123.72C176.657 123.72 177.144 123.593 177.597 123.34C178.051 123.073 178.411 122.7 178.677 122.22C178.944 121.727 179.077 121.14 179.077 120.46ZM183.912 120.42C183.912 119.3 184.132 118.307 184.572 117.44C185.025 116.573 185.639 115.907 186.412 115.44C187.185 114.973 188.045 114.74 188.992 114.74C189.712 114.74 190.399 114.9 191.052 115.22C191.705 115.527 192.225 115.94 192.612 116.46V111.2H195.452V126H192.612V124.36C192.265 124.907 191.779 125.347 191.152 125.68C190.525 126.013 189.799 126.18 188.972 126.18C188.039 126.18 187.185 125.94 186.412 125.46C185.639 124.98 185.025 124.307 184.572 123.44C184.132 122.56 183.912 121.553 183.912 120.42ZM192.632 120.46C192.632 119.78 192.499 119.2 192.232 118.72C191.965 118.227 191.605 117.853 191.152 117.6C190.699 117.333 190.212 117.2 189.692 117.2C189.172 117.2 188.692 117.327 188.252 117.58C187.812 117.833 187.452 118.207 187.172 118.7C186.905 119.18 186.772 119.753 186.772 120.42C186.772 121.087 186.905 121.673 187.172 122.18C187.452 122.673 187.812 123.053 188.252 123.32C188.705 123.587 189.185 123.72 189.692 123.72C190.212 123.72 190.699 123.593 191.152 123.34C191.605 123.073 191.965 122.7 192.232 122.22C192.499 121.727 192.632 121.14 192.632 120.46ZM208.487 120.22C208.487 120.62 208.46 120.98 208.407 121.3H200.307C200.373 122.1 200.653 122.727 201.147 123.18C201.64 123.633 202.247 123.86 202.967 123.86C204.007 123.86 204.747 123.413 205.187 122.52H208.207C207.887 123.587 207.273 124.467 206.367 125.16C205.46 125.84 204.347 126.18 203.027 126.18C201.96 126.18 201 125.947 200.147 125.48C199.307 125 198.647 124.327 198.167 123.46C197.7 122.593 197.467 121.593 197.467 120.46C197.467 119.313 197.7 118.307 198.167 117.44C198.633 116.573 199.287 115.907 200.127 115.44C200.967 114.973 201.933 114.74 203.027 114.74C204.08 114.74 205.02 114.967 205.847 115.42C206.687 115.873 207.333 116.52 207.787 117.36C208.253 118.187 208.487 119.14 208.487 120.22ZM205.587 119.42C205.573 118.7 205.313 118.127 204.807 117.7C204.3 117.26 203.68 117.04 202.947 117.04C202.253 117.04 201.667 117.253 201.187 117.68C200.72 118.093 200.433 118.673 200.327 119.42H205.587ZM92.9345 156.18C92.0278 156.18 91.2145 156.02 90.4945 155.7C89.7745 155.367 89.2011 154.92 88.7745 154.36C88.3611 153.8 88.1345 153.18 88.0945 152.5H90.9145C90.9678 152.927 91.1745 153.28 91.5345 153.56C91.9078 153.84 92.3678 153.98 92.9145 153.98C93.4478 153.98 93.8611 153.873 94.1545 153.66C94.4611 153.447 94.6145 153.173 94.6145 152.84C94.6145 152.48 94.4278 152.213 94.0545 152.04C93.6945 151.853 93.1145 151.653 92.3145 151.44C91.4878 151.24 90.8078 151.033 90.2745 150.82C89.7545 150.607 89.3011 150.28 88.9145 149.84C88.5411 149.4 88.3545 148.807 88.3545 148.06C88.3545 147.447 88.5278 146.887 88.8745 146.38C89.2345 145.873 89.7411 145.473 90.3945 145.18C91.0611 144.887 91.8411 144.74 92.7345 144.74C94.0545 144.74 95.1078 145.073 95.8945 145.74C96.6811 146.393 97.1145 147.28 97.1945 148.4H94.5145C94.4745 147.96 94.2878 147.613 93.9545 147.36C93.6345 147.093 93.2011 146.96 92.6545 146.96C92.1478 146.96 91.7545 147.053 91.4745 147.24C91.2078 147.427 91.0745 147.687 91.0745 148.02C91.0745 148.393 91.2611 148.68 91.6345 148.88C92.0078 149.067 92.5878 149.26 93.3745 149.46C94.1745 149.66 94.8345 149.867 95.3545 150.08C95.8745 150.293 96.3211 150.627 96.6945 151.08C97.0811 151.52 97.2811 152.107 97.2945 152.84C97.2945 153.48 97.1145 154.053 96.7545 154.56C96.4078 155.067 95.9011 155.467 95.2345 155.76C94.5811 156.04 93.8145 156.18 92.9345 156.18ZM104.513 156.18C103.446 156.18 102.486 155.947 101.633 155.48C100.78 155 100.106 154.327 99.6129 153.46C99.1329 152.593 98.8929 151.593 98.8929 150.46C98.8929 149.327 99.1396 148.327 99.6329 147.46C100.14 146.593 100.826 145.927 101.693 145.46C102.56 144.98 103.526 144.74 104.593 144.74C105.66 144.74 106.626 144.98 107.493 145.46C108.36 145.927 109.04 146.593 109.533 147.46C110.04 148.327 110.293 149.327 110.293 150.46C110.293 151.593 110.033 152.593 109.513 153.46C109.006 154.327 108.313 155 107.433 155.48C106.566 155.947 105.593 156.18 104.513 156.18ZM104.513 153.74C105.02 153.74 105.493 153.62 105.933 153.38C106.386 153.127 106.746 152.753 107.013 152.26C107.28 151.767 107.413 151.167 107.413 150.46C107.413 149.407 107.133 148.6 106.573 148.04C106.026 147.467 105.353 147.18 104.553 147.18C103.753 147.18 103.08 147.467 102.533 148.04C102 148.6 101.733 149.407 101.733 150.46C101.733 151.513 101.993 152.327 102.513 152.9C103.046 153.46 103.713 153.74 104.513 153.74ZM111.627 150.46C111.627 149.313 111.86 148.313 112.327 147.46C112.793 146.593 113.44 145.927 114.267 145.46C115.093 144.98 116.04 144.74 117.107 144.74C118.48 144.74 119.613 145.087 120.507 145.78C121.413 146.46 122.02 147.42 122.327 148.66H119.307C119.147 148.18 118.873 147.807 118.487 147.54C118.113 147.26 117.647 147.12 117.087 147.12C116.287 147.12 115.653 147.413 115.187 148C114.72 148.573 114.487 149.393 114.487 150.46C114.487 151.513 114.72 152.333 115.187 152.92C115.653 153.493 116.287 153.78 117.087 153.78C118.22 153.78 118.96 153.273 119.307 152.26H122.327C122.02 153.46 121.413 154.413 120.507 155.12C119.6 155.827 118.467 156.18 117.107 156.18C116.04 156.18 115.093 155.947 114.267 155.48C113.44 155 112.793 154.333 112.327 153.48C111.86 152.613 111.627 151.607 111.627 150.46ZM125.798 143.6C125.305 143.6 124.891 143.447 124.558 143.14C124.238 142.82 124.078 142.427 124.078 141.96C124.078 141.493 124.238 141.107 124.558 140.8C124.891 140.48 125.305 140.32 125.798 140.32C126.291 140.32 126.698 140.48 127.018 140.8C127.351 141.107 127.518 141.493 127.518 141.96C127.518 142.427 127.351 142.82 127.018 143.14C126.698 143.447 126.291 143.6 125.798 143.6ZM127.178 144.92V156H124.378V144.92H127.178ZM129.224 150.42C129.224 149.3 129.444 148.307 129.884 147.44C130.338 146.573 130.944 145.907 131.704 145.44C132.478 144.973 133.338 144.74 134.284 144.74C135.111 144.74 135.831 144.907 136.444 145.24C137.071 145.573 137.571 145.993 137.944 146.5V144.92H140.764V156H137.944V154.38C137.584 154.9 137.084 155.333 136.444 155.68C135.818 156.013 135.091 156.18 134.264 156.18C133.331 156.18 132.478 155.94 131.704 155.46C130.944 154.98 130.338 154.307 129.884 153.44C129.444 152.56 129.224 151.553 129.224 150.42ZM137.944 150.46C137.944 149.78 137.811 149.2 137.544 148.72C137.278 148.227 136.918 147.853 136.464 147.6C136.011 147.333 135.524 147.2 135.004 147.2C134.484 147.2 134.004 147.327 133.564 147.58C133.124 147.833 132.764 148.207 132.484 148.7C132.218 149.18 132.084 149.753 132.084 150.42C132.084 151.087 132.218 151.673 132.484 152.18C132.764 152.673 133.124 153.053 133.564 153.32C134.018 153.587 134.498 153.72 135.004 153.72C135.524 153.72 136.011 153.593 136.464 153.34C136.918 153.073 137.278 152.7 137.544 152.22C137.811 151.727 137.944 151.14 137.944 150.46ZM146.299 141.2V156H143.499V141.2H146.299Z" fill="#29295B"/>
</g>
<defs>
<clipPath id="clip0_203_171">
<rect width="235" height="196" rx="32" fill="white"/>
</clipPath>
<clipPath id="clip1_203_171">
<rect width="24" height="24" fill="white" transform="translate(105.5 44)"/>
</clipPath>
</defs>
</svg>
