<svg width="235" height="196" viewBox="0 0 235 196" fill="none" xmlns="http://www.w3.org/2000/svg">
<rect width="235" height="196" rx="32" fill="#F6F6FA"/>
<circle cx="117.5" cy="56" r="24" fill="#29295B"/>
<g clip-path="url(#clip0_203_155)">
<path d="M120.591 59.9972C127.162 59.9642 129.5 56.4842 129.5 53.5002C129.5 51.8232 128.312 50.4202 126.735 50.0812C126.871 49.6952 126.989 49.3402 127.068 49.0712C127.421 47.8782 127.193 46.6182 126.442 45.6132C125.676 44.5892 124.505 44.0012 123.228 44.0012H111.771C110.494 44.0012 109.322 44.5892 108.556 45.6132C107.805 46.6182 107.577 47.8792 107.93 49.0712C108.01 49.3402 108.127 49.6952 108.264 50.0822C106.687 50.4212 105.5 51.8242 105.5 53.5012C105.5 56.4852 107.839 59.9652 114.409 59.9982C114.465 60.3002 114.5 60.6082 114.5 60.9222V64.0012C114.5 65.8272 112.964 65.9932 112.5 66.0012H111.5C110.947 66.0012 110.5 66.4482 110.5 67.0012C110.5 67.5542 110.947 68.0012 111.5 68.0012H123.5C124.053 68.0012 124.5 67.5542 124.5 67.0012C124.5 66.4482 124.053 66.0012 123.5 66.0012H122.508C122.036 65.9932 120.5 65.8272 120.5 64.0012V60.9212C120.5 60.6082 120.535 60.3002 120.591 59.9982V59.9972ZM125.952 51.9902C125.969 51.9902 125.983 52.0002 126 52.0002C126.827 52.0002 127.5 52.6732 127.5 53.5002C127.5 55.5342 125.891 57.6972 121.464 57.9702C121.685 57.6712 121.938 57.3942 122.226 57.1492C123.965 55.6712 125.159 53.6962 125.952 51.9902ZM107.5 53.5002C107.5 52.6732 108.173 52.0002 109 52.0002C109.017 52.0002 109.031 51.9912 109.047 51.9902C109.841 53.6962 111.035 55.6712 112.774 57.1492C113.062 57.3942 113.315 57.6702 113.536 57.9702C109.109 57.6972 107.5 55.5342 107.5 53.5002ZM115.292 53.7632C115.028 53.5812 114.917 53.2452 115.022 52.9412L115.541 51.3352L114.175 50.3352C113.848 50.0952 113.777 49.6362 114.017 49.3092C114.155 49.1212 114.375 49.0092 114.608 49.0092H116.289L116.8 47.4162C116.929 47.0292 117.347 46.8212 117.734 46.9502C117.954 47.0232 118.127 47.1962 118.2 47.4162L118.71 49.0092H120.391C120.796 49.0092 121.125 49.3372 121.125 49.7432C121.125 49.9782 121.013 50.1982 120.824 50.3362L119.458 51.3362L119.977 52.9422C120.101 53.3282 119.889 53.7422 119.502 53.8672C119.278 53.9392 119.033 53.8992 118.843 53.7602L117.5 52.7722L116.156 53.7592C115.9 53.9502 115.55 53.9512 115.292 53.7632Z" fill="white"/>
</g>
<path d="M39.4003 126L36.3203 120.56H35.0003V126H32.2003V112.04H37.4403C38.5203 112.04 39.4403 112.233 40.2003 112.62C40.9603 112.993 41.527 113.507 41.9003 114.16C42.287 114.8 42.4803 115.52 42.4803 116.32C42.4803 117.24 42.2136 118.073 41.6803 118.82C41.147 119.553 40.3536 120.06 39.3003 120.34L42.6403 126H39.4003ZM35.0003 118.46H37.3403C38.1003 118.46 38.667 118.28 39.0403 117.92C39.4136 117.547 39.6003 117.033 39.6003 116.38C39.6003 115.74 39.4136 115.247 39.0403 114.9C38.667 114.54 38.1003 114.36 37.3403 114.36H35.0003V118.46ZM55.3128 120.22C55.3128 120.62 55.2861 120.98 55.2328 121.3H47.1328C47.1995 122.1 47.4795 122.727 47.9728 123.18C48.4661 123.633 49.0728 123.86 49.7928 123.86C50.8328 123.86 51.5728 123.413 52.0128 122.52H55.0328C54.7128 123.587 54.0995 124.467 53.1928 125.16C52.2861 125.84 51.1728 126.18 49.8528 126.18C48.7861 126.18 47.8261 125.947 46.9728 125.48C46.1328 125 45.4728 124.327 44.9928 123.46C44.5261 122.593 44.2928 121.593 44.2928 120.46C44.2928 119.313 44.5261 118.307 44.9928 117.44C45.4595 116.573 46.1128 115.907 46.9528 115.44C47.7928 114.973 48.7595 114.74 49.8528 114.74C50.9061 114.74 51.8461 114.967 52.6728 115.42C53.5128 115.873 54.1595 116.52 54.6128 117.36C55.0795 118.187 55.3128 119.14 55.3128 120.22ZM52.4128 119.42C52.3995 118.7 52.1395 118.127 51.6328 117.7C51.1261 117.26 50.5061 117.04 49.7728 117.04C49.0795 117.04 48.4928 117.253 48.0128 117.68C47.5461 118.093 47.2595 118.673 47.1528 119.42H52.4128ZM56.6366 120.46C56.6366 119.313 56.8699 118.313 57.3366 117.46C57.8032 116.593 58.4499 115.927 59.2766 115.46C60.1032 114.98 61.0499 114.74 62.1166 114.74C63.4899 114.74 64.6232 115.087 65.5166 115.78C66.4232 116.46 67.0299 117.42 67.3366 118.66H64.3166C64.1566 118.18 63.8832 117.807 63.4966 117.54C63.1232 117.26 62.6566 117.12 62.0966 117.12C61.2966 117.12 60.6632 117.413 60.1966 118C59.7299 118.573 59.4966 119.393 59.4966 120.46C59.4966 121.513 59.7299 122.333 60.1966 122.92C60.6632 123.493 61.2966 123.78 62.0966 123.78C63.2299 123.78 63.9699 123.273 64.3166 122.26H67.3366C67.0299 123.46 66.4232 124.413 65.5166 125.12C64.6099 125.827 63.4766 126.18 62.1166 126.18C61.0499 126.18 60.1032 125.947 59.2766 125.48C58.4499 125 57.8032 124.333 57.3366 123.48C56.8699 122.613 56.6366 121.607 56.6366 120.46ZM74.3078 126.18C73.2411 126.18 72.2811 125.947 71.4278 125.48C70.5745 125 69.9011 124.327 69.4078 123.46C68.9278 122.593 68.6878 121.593 68.6878 120.46C68.6878 119.327 68.9345 118.327 69.4278 117.46C69.9345 116.593 70.6211 115.927 71.4878 115.46C72.3545 114.98 73.3211 114.74 74.3878 114.74C75.4545 114.74 76.4211 114.98 77.2878 115.46C78.1545 115.927 78.8345 116.593 79.3278 117.46C79.8345 118.327 80.0878 119.327 80.0878 120.46C80.0878 121.593 79.8278 122.593 79.3078 123.46C78.8011 124.327 78.1078 125 77.2278 125.48C76.3611 125.947 75.3878 126.18 74.3078 126.18ZM74.3078 123.74C74.8145 123.74 75.2878 123.62 75.7278 123.38C76.1811 123.127 76.5411 122.753 76.8078 122.26C77.0745 121.767 77.2078 121.167 77.2078 120.46C77.2078 119.407 76.9278 118.6 76.3678 118.04C75.8211 117.467 75.1478 117.18 74.3478 117.18C73.5478 117.18 72.8745 117.467 72.3278 118.04C71.7945 118.6 71.5278 119.407 71.5278 120.46C71.5278 121.513 71.7878 122.327 72.3078 122.9C72.8411 123.46 73.5078 123.74 74.3078 123.74ZM88.2817 114.76C89.6017 114.76 90.6684 115.18 91.4817 116.02C92.2951 116.847 92.7017 118.007 92.7017 119.5V126H89.9017V119.88C89.9017 119 89.6817 118.327 89.2417 117.86C88.8017 117.38 88.2017 117.14 87.4417 117.14C86.6684 117.14 86.0551 117.38 85.6017 117.86C85.1617 118.327 84.9417 119 84.9417 119.88V126H82.1417V114.92H84.9417V116.3C85.3151 115.82 85.7884 115.447 86.3617 115.18C86.9484 114.9 87.5884 114.76 88.2817 114.76ZM101.604 114.76C102.444 114.76 103.191 114.947 103.844 115.32C104.498 115.68 105.004 116.22 105.364 116.94C105.738 117.647 105.924 118.5 105.924 119.5V126H103.124V119.88C103.124 119 102.904 118.327 102.464 117.86C102.024 117.38 101.424 117.14 100.664 117.14C99.891 117.14 99.2777 117.38 98.8244 117.86C98.3844 118.327 98.1644 119 98.1644 119.88V126H95.3644V111.2H98.1644V116.3C98.5244 115.82 99.0044 115.447 99.6044 115.18C100.204 114.9 100.871 114.76 101.604 114.76ZM118.887 120.22C118.887 120.62 118.86 120.98 118.807 121.3H110.707C110.774 122.1 111.054 122.727 111.547 123.18C112.04 123.633 112.647 123.86 113.367 123.86C114.407 123.86 115.147 123.413 115.587 122.52H118.607C118.287 123.587 117.674 124.467 116.767 125.16C115.86 125.84 114.747 126.18 113.427 126.18C112.36 126.18 111.4 125.947 110.547 125.48C109.707 125 109.047 124.327 108.567 123.46C108.1 122.593 107.867 121.593 107.867 120.46C107.867 119.313 108.1 118.307 108.567 117.44C109.034 116.573 109.687 115.907 110.527 115.44C111.367 114.973 112.334 114.74 113.427 114.74C114.48 114.74 115.42 114.967 116.247 115.42C117.087 115.873 117.734 116.52 118.187 117.36C118.654 118.187 118.887 119.14 118.887 120.22ZM115.987 119.42C115.974 118.7 115.714 118.127 115.207 117.7C114.7 117.26 114.08 117.04 113.347 117.04C112.654 117.04 112.067 117.253 111.587 117.68C111.12 118.093 110.834 118.673 110.727 119.42H115.987ZM120.211 120.46C120.211 119.313 120.444 118.313 120.911 117.46C121.377 116.593 122.024 115.927 122.851 115.46C123.677 114.98 124.624 114.74 125.691 114.74C127.064 114.74 128.197 115.087 129.091 115.78C129.997 116.46 130.604 117.42 130.911 118.66H127.891C127.731 118.18 127.457 117.807 127.071 117.54C126.697 117.26 126.231 117.12 125.671 117.12C124.871 117.12 124.237 117.413 123.771 118C123.304 118.573 123.071 119.393 123.071 120.46C123.071 121.513 123.304 122.333 123.771 122.92C124.237 123.493 124.871 123.78 125.671 123.78C126.804 123.78 127.544 123.273 127.891 122.26H130.911C130.604 123.46 129.997 124.413 129.091 125.12C128.184 125.827 127.051 126.18 125.691 126.18C124.624 126.18 123.677 125.947 122.851 125.48C122.024 125 121.377 124.333 120.911 123.48C120.444 122.613 120.211 121.607 120.211 120.46ZM134.382 113.6C133.889 113.6 133.475 113.447 133.142 113.14C132.822 112.82 132.662 112.427 132.662 111.96C132.662 111.493 132.822 111.107 133.142 110.8C133.475 110.48 133.889 110.32 134.382 110.32C134.875 110.32 135.282 110.48 135.602 110.8C135.935 111.107 136.102 111.493 136.102 111.96C136.102 112.427 135.935 112.82 135.602 113.14C135.282 113.447 134.875 113.6 134.382 113.6ZM135.762 114.92V126H132.962V114.92H135.762ZM152.288 114.76C153.648 114.76 154.742 115.18 155.568 116.02C156.408 116.847 156.828 118.007 156.828 119.5V126H154.028V119.88C154.028 119.013 153.808 118.353 153.368 117.9C152.928 117.433 152.328 117.2 151.568 117.2C150.808 117.2 150.202 117.433 149.748 117.9C149.308 118.353 149.088 119.013 149.088 119.88V126H146.288V119.88C146.288 119.013 146.068 118.353 145.628 117.9C145.188 117.433 144.588 117.2 143.828 117.2C143.055 117.2 142.442 117.433 141.988 117.9C141.548 118.353 141.328 119.013 141.328 119.88V126H138.528V114.92H141.328V116.26C141.688 115.793 142.148 115.427 142.708 115.16C143.282 114.893 143.908 114.76 144.588 114.76C145.455 114.76 146.228 114.947 146.908 115.32C147.588 115.68 148.115 116.2 148.488 116.88C148.848 116.24 149.368 115.727 150.048 115.34C150.742 114.953 151.488 114.76 152.288 114.76ZM169.785 120.22C169.785 120.62 169.759 120.98 169.705 121.3H161.605C161.672 122.1 161.952 122.727 162.445 123.18C162.939 123.633 163.545 123.86 164.265 123.86C165.305 123.86 166.045 123.413 166.485 122.52H169.505C169.185 123.587 168.572 124.467 167.665 125.16C166.759 125.84 165.645 126.18 164.325 126.18C163.259 126.18 162.299 125.947 161.445 125.48C160.605 125 159.945 124.327 159.465 123.46C158.999 122.593 158.765 121.593 158.765 120.46C158.765 119.313 158.999 118.307 159.465 117.44C159.932 116.573 160.585 115.907 161.425 115.44C162.265 114.973 163.232 114.74 164.325 114.74C165.379 114.74 166.319 114.967 167.145 115.42C167.985 115.873 168.632 116.52 169.085 117.36C169.552 118.187 169.785 119.14 169.785 120.22ZM166.885 119.42C166.872 118.7 166.612 118.127 166.105 117.7C165.599 117.26 164.979 117.04 164.245 117.04C163.552 117.04 162.965 117.253 162.485 117.68C162.019 118.093 161.732 118.673 161.625 119.42H166.885ZM177.969 114.76C179.289 114.76 180.356 115.18 181.169 116.02C181.983 116.847 182.389 118.007 182.389 119.5V126H179.589V119.88C179.589 119 179.369 118.327 178.929 117.86C178.489 117.38 177.889 117.14 177.129 117.14C176.356 117.14 175.743 117.38 175.289 117.86C174.849 118.327 174.629 119 174.629 119.88V126H171.829V114.92H174.629V116.3C175.003 115.82 175.476 115.447 176.049 115.18C176.636 114.9 177.276 114.76 177.969 114.76ZM188.312 117.22V122.58C188.312 122.953 188.399 123.227 188.572 123.4C188.759 123.56 189.065 123.64 189.492 123.64H190.792V126H189.032C186.672 126 185.492 124.853 185.492 122.56V117.22H184.172V114.92H185.492V112.18H188.312V114.92H190.792V117.22H188.312ZM197.726 126.18C196.659 126.18 195.699 125.947 194.846 125.48C193.992 125 193.319 124.327 192.826 123.46C192.346 122.593 192.106 121.593 192.106 120.46C192.106 119.327 192.352 118.327 192.846 117.46C193.352 116.593 194.039 115.927 194.906 115.46C195.772 114.98 196.739 114.74 197.806 114.74C198.872 114.74 199.839 114.98 200.706 115.46C201.572 115.927 202.252 116.593 202.746 117.46C203.252 118.327 203.506 119.327 203.506 120.46C203.506 121.593 203.246 122.593 202.726 123.46C202.219 124.327 201.526 125 200.646 125.48C199.779 125.947 198.806 126.18 197.726 126.18ZM197.726 123.74C198.232 123.74 198.706 123.62 199.146 123.38C199.599 123.127 199.959 122.753 200.226 122.26C200.492 121.767 200.626 121.167 200.626 120.46C200.626 119.407 200.346 118.6 199.786 118.04C199.239 117.467 198.566 117.18 197.766 117.18C196.966 117.18 196.292 117.467 195.746 118.04C195.212 118.6 194.946 119.407 194.946 120.46C194.946 121.513 195.206 122.327 195.726 122.9C196.259 123.46 196.926 123.74 197.726 123.74Z" fill="#29295B"/>
<defs>
<clipPath id="clip0_203_155">
<rect width="24" height="24" fill="white" transform="translate(105.5 44)"/>
</clipPath>
</defs>
</svg>
