<svg width="235" height="196" viewBox="0 0 235 196" fill="none" xmlns="http://www.w3.org/2000/svg">
<rect width="235" height="196" rx="32" fill="#F6F6FA"/>
<circle cx="117.5" cy="56" r="24" fill="#29295B"/>
<g clip-path="url(#clip0_203_139)">
<rect width="24" height="24" transform="translate(105.5 44)" fill="#29295B"/>
<path d="M122.285 46.4741L123.52 44.4641C123.808 43.9921 124.424 43.8461 124.895 44.1361C125.366 44.4251 125.513 45.0401 125.223 45.5111L123.988 47.5211C123.8 47.8291 123.471 47.9981 123.135 47.9981C122.956 47.9981 122.776 47.9501 122.613 47.8501C122.142 47.5611 121.995 46.9451 122.285 46.4741ZM110.927 47.5201C111.115 47.8281 111.445 47.9981 111.781 47.9981C111.959 47.9981 112.139 47.9501 112.302 47.8511C112.773 47.5621 112.921 46.9471 112.632 46.4761L111.399 44.4651C111.11 43.9941 110.494 43.8471 110.024 44.1351C109.553 44.4241 109.405 45.0391 109.694 45.5101L110.927 47.5201ZM108.741 49.7281L106.943 48.8671C106.447 48.6261 105.846 48.8381 105.61 49.3371C105.371 49.8351 105.582 50.4321 106.08 50.6701L107.878 51.5311C108.017 51.5981 108.164 51.6301 108.309 51.6301C108.682 51.6301 109.04 51.4211 109.211 51.0621C109.45 50.5641 109.239 49.9661 108.741 49.7281ZM117.364 48.0011C111.85 48.0921 107.48 54.0681 110.474 59.8241C110.929 60.6981 111.604 61.4301 112.329 62.0971C112.604 62.3501 112.817 62.6631 112.999 62.9991H116.5V57.8151C115.339 57.4011 114.5 56.3011 114.5 54.9991C114.5 54.4461 114.947 53.9991 115.5 53.9991C116.053 53.9991 116.5 54.4461 116.5 54.9991C116.5 55.5521 116.948 55.9991 117.5 55.9991C118.052 55.9991 118.5 55.5511 118.5 54.9991C118.5 54.4471 118.947 53.9991 119.5 53.9991C120.053 53.9991 120.5 54.4461 120.5 54.9991C120.5 56.3011 119.661 57.4011 118.5 57.8151V62.9991H121.968C122.196 62.6081 122.49 62.239 122.875 61.9181C123.534 61.3681 124.154 60.7551 124.535 59.9861C126.272 56.4731 125.583 52.7271 123.109 50.2951C121.568 48.7791 119.527 47.9681 117.364 48.0011ZM113.492 65.2781C113.412 66.7441 114.51 68.0001 115.978 68.0001H118.999C120.38 68.0001 121.499 66.8811 121.499 65.5001V65.0001H113.481C113.481 65.0941 113.498 65.1821 113.492 65.2781ZM129.413 49.3001C129.185 48.7971 128.594 48.5701 128.091 48.8001L126.159 49.6721C125.655 49.8991 125.431 50.4911 125.659 50.9941C125.826 51.3641 126.189 51.5831 126.571 51.5831C126.708 51.5831 126.848 51.5551 126.981 51.4941L128.913 50.6221C129.417 50.3951 129.641 49.8031 129.413 49.3001Z" fill="white"/>
</g>
<path d="M73.9749 112.04V126H71.1749V112.04H73.9749ZM82.8813 114.76C84.2013 114.76 85.268 115.18 86.0813 116.02C86.8947 116.847 87.3013 118.007 87.3013 119.5V126H84.5013V119.88C84.5013 119 84.2813 118.327 83.8413 117.86C83.4013 117.38 82.8013 117.14 82.0413 117.14C81.268 117.14 80.6547 117.38 80.2013 117.86C79.7613 118.327 79.5413 119 79.5413 119.88V126H76.7413V114.92H79.5413V116.3C79.9147 115.82 80.388 115.447 80.9613 115.18C81.548 114.9 82.188 114.76 82.8813 114.76ZM94.884 126.18C93.8173 126.18 92.8573 125.947 92.004 125.48C91.1507 125 90.4773 124.327 89.984 123.46C89.504 122.593 89.264 121.593 89.264 120.46C89.264 119.327 89.5107 118.327 90.004 117.46C90.5107 116.593 91.1973 115.927 92.064 115.46C92.9307 114.98 93.8973 114.74 94.964 114.74C96.0307 114.74 96.9973 114.98 97.864 115.46C98.7307 115.927 99.4107 116.593 99.904 117.46C100.411 118.327 100.664 119.327 100.664 120.46C100.664 121.593 100.404 122.593 99.884 123.46C99.3773 124.327 98.684 125 97.804 125.48C96.9373 125.947 95.964 126.18 94.884 126.18ZM94.884 123.74C95.3907 123.74 95.864 123.62 96.304 123.38C96.7573 123.127 97.1173 122.753 97.384 122.26C97.6507 121.767 97.784 121.167 97.784 120.46C97.784 119.407 97.504 118.6 96.944 118.04C96.3973 117.467 95.724 117.18 94.924 117.18C94.124 117.18 93.4507 117.467 92.904 118.04C92.3707 118.6 92.104 119.407 92.104 120.46C92.104 121.513 92.364 122.327 92.884 122.9C93.4173 123.46 94.084 123.74 94.884 123.74ZM107.338 123.42L110.138 114.92H113.118L109.018 126H105.618L101.538 114.92H104.538L107.338 123.42ZM113.971 120.42C113.971 119.3 114.191 118.307 114.631 117.44C115.084 116.573 115.691 115.907 116.451 115.44C117.224 114.973 118.084 114.74 119.031 114.74C119.857 114.74 120.577 114.907 121.191 115.24C121.817 115.573 122.317 115.993 122.691 116.5V114.92H125.511V126H122.691V124.38C122.331 124.9 121.831 125.333 121.191 125.68C120.564 126.013 119.837 126.18 119.011 126.18C118.077 126.18 117.224 125.94 116.451 125.46C115.691 124.98 115.084 124.307 114.631 123.44C114.191 122.56 113.971 121.553 113.971 120.42ZM122.691 120.46C122.691 119.78 122.557 119.2 122.291 118.72C122.024 118.227 121.664 117.853 121.211 117.6C120.757 117.333 120.271 117.2 119.751 117.2C119.231 117.2 118.751 117.327 118.311 117.58C117.871 117.833 117.511 118.207 117.231 118.7C116.964 119.18 116.831 119.753 116.831 120.42C116.831 121.087 116.964 121.673 117.231 122.18C117.511 122.673 117.871 123.053 118.311 123.32C118.764 123.587 119.244 123.72 119.751 123.72C120.271 123.72 120.757 123.593 121.211 123.34C121.664 123.073 122.024 122.7 122.291 122.22C122.557 121.727 122.691 121.14 122.691 120.46ZM132.985 123.78C134.119 123.78 134.859 123.273 135.205 122.26H138.225C137.945 123.34 137.425 124.22 136.665 124.9C135.919 125.58 134.979 125.987 133.845 126.12V126.9C134.579 126.9 135.192 127.087 135.685 127.46C136.192 127.833 136.445 128.373 136.445 129.08C136.445 129.8 136.185 130.353 135.665 130.74C135.159 131.127 134.532 131.32 133.785 131.32H130.945V129.68H133.325C133.645 129.68 133.885 129.633 134.045 129.54C134.219 129.447 134.305 129.28 134.305 129.04C134.305 128.8 134.219 128.633 134.045 128.54C133.885 128.46 133.645 128.42 133.325 128.42H132.085V126.12C131.179 125.987 130.379 125.673 129.685 125.18C129.005 124.673 128.472 124.02 128.085 123.22C127.712 122.407 127.525 121.487 127.525 120.46C127.525 119.313 127.759 118.313 128.225 117.46C128.692 116.593 129.339 115.927 130.165 115.46C130.992 114.98 131.939 114.74 133.005 114.74C134.379 114.74 135.512 115.087 136.405 115.78C137.312 116.46 137.919 117.42 138.225 118.66H135.205C135.045 118.18 134.772 117.807 134.385 117.54C134.012 117.26 133.545 117.12 132.985 117.12C132.185 117.12 131.552 117.413 131.085 118C130.619 118.573 130.385 119.393 130.385 120.46C130.385 121.513 130.619 122.333 131.085 122.92C131.552 123.493 132.185 123.78 132.985 123.78ZM139.556 120.42C139.556 119.3 139.776 118.307 140.216 117.44C140.67 116.573 141.276 115.907 142.036 115.44C142.81 114.973 143.67 114.74 144.616 114.74C145.443 114.74 146.163 114.907 146.776 115.24C147.403 115.573 147.903 115.993 148.276 116.5V114.92H151.096V126H148.276V124.38C147.916 124.9 147.416 125.333 146.776 125.68C146.15 126.013 145.423 126.18 144.596 126.18C143.663 126.18 142.81 125.94 142.036 125.46C141.276 124.98 140.67 124.307 140.216 123.44C139.776 122.56 139.556 121.553 139.556 120.42ZM148.276 120.46C148.276 119.78 148.143 119.2 147.876 118.72C147.61 118.227 147.25 117.853 146.796 117.6C146.343 117.333 145.856 117.2 145.336 117.2C144.816 117.2 144.336 117.327 143.896 117.58C143.456 117.833 143.096 118.207 142.816 118.7C142.55 119.18 142.416 119.753 142.416 120.42C142.416 121.087 142.55 121.673 142.816 122.18C143.096 122.673 143.456 123.053 143.896 123.32C144.35 123.587 144.83 123.72 145.336 123.72C145.856 123.72 146.343 123.593 146.796 123.34C147.25 123.073 147.61 122.7 147.876 122.22C148.143 121.727 148.276 121.14 148.276 120.46ZM142.116 113.86C142.236 112.98 142.51 112.327 142.936 111.9C143.376 111.46 143.93 111.24 144.596 111.24C144.876 111.24 145.123 111.287 145.336 111.38C145.55 111.46 145.79 111.58 146.056 111.74C146.456 111.993 146.79 112.12 147.056 112.12C147.55 112.12 147.836 111.833 147.916 111.26H149.416C149.296 112.14 149.016 112.8 148.576 113.24C148.15 113.667 147.603 113.88 146.936 113.88C146.656 113.88 146.41 113.84 146.196 113.76C145.983 113.667 145.743 113.54 145.476 113.38C145.09 113.113 144.756 112.98 144.476 112.98C143.983 112.98 143.69 113.273 143.596 113.86H142.116ZM158.751 126.18C157.685 126.18 156.725 125.947 155.871 125.48C155.018 125 154.345 124.327 153.851 123.46C153.371 122.593 153.131 121.593 153.131 120.46C153.131 119.327 153.378 118.327 153.871 117.46C154.378 116.593 155.065 115.927 155.931 115.46C156.798 114.98 157.765 114.74 158.831 114.74C159.898 114.74 160.865 114.98 161.731 115.46C162.598 115.927 163.278 116.593 163.771 117.46C164.278 118.327 164.531 119.327 164.531 120.46C164.531 121.593 164.271 122.593 163.751 123.46C163.245 124.327 162.551 125 161.671 125.48C160.805 125.947 159.831 126.18 158.751 126.18ZM158.751 123.74C159.258 123.74 159.731 123.62 160.171 123.38C160.625 123.127 160.985 122.753 161.251 122.26C161.518 121.767 161.651 121.167 161.651 120.46C161.651 119.407 161.371 118.6 160.811 118.04C160.265 117.467 159.591 117.18 158.791 117.18C157.991 117.18 157.318 117.467 156.771 118.04C156.238 118.6 155.971 119.407 155.971 120.46C155.971 121.513 156.231 122.327 156.751 122.9C157.285 123.46 157.951 123.74 158.751 123.74Z" fill="#29295B"/>
<defs>
<clipPath id="clip0_203_139">
<rect width="24" height="24" fill="white" transform="translate(105.5 44)"/>
</clipPath>
</defs>
</svg>
