<svg width="235" height="196" viewBox="0 0 235 196" fill="none" xmlns="http://www.w3.org/2000/svg">
<rect width="235" height="196" rx="32" fill="#F6F6FA"/>
<circle cx="117.5" cy="56" r="24" fill="#29295B"/>
<g clip-path="url(#clip0_203_163)">
<path d="M130 67C130 67.552 129.552 68 129 68H109C107.346 68 106 66.654 106 65V45C106 44.448 106.448 44 107 44C107.552 44 108 44.448 108 45V65C108 65.551 108.449 66 109 66H129C129.552 66 130 66.448 130 67ZM127 49H123C122.448 49 122 49.448 122 50C122 50.552 122.448 51 123 51H126.563L121.706 55.707C121.329 56.085 120.67 56.085 120.293 55.707C120.252 55.667 119.054 54.814 119.054 54.814C117.916 53.741 115.977 53.781 114.892 54.865L110.306 59.279C109.908 59.662 109.896 60.295 110.279 60.693C110.476 60.897 110.737 61 111 61C111.25 61 111.5 60.907 111.693 60.721L116.293 56.293C116.67 55.915 117.329 55.915 117.706 56.293C117.747 56.333 118.945 57.186 118.945 57.186C120.084 58.26 122.021 58.222 123.109 57.132L127.999 52.392V55.999C127.999 56.551 128.447 56.999 128.999 56.999C129.551 56.999 129.999 56.551 129.999 55.999V51.999C129.999 50.345 128.653 48.999 126.999 48.999L127 49Z" fill="white"/>
</g>
<path d="M74.8495 126L71.7695 120.56H70.4495V126H67.6495V112.04H72.8895C73.9695 112.04 74.8895 112.233 75.6495 112.62C76.4095 112.993 76.9762 113.507 77.3495 114.16C77.7362 114.8 77.9295 115.52 77.9295 116.32C77.9295 117.24 77.6629 118.073 77.1295 118.82C76.5962 119.553 75.8029 120.06 74.7495 120.34L78.0895 126H74.8495ZM70.4495 118.46H72.7895C73.5495 118.46 74.1162 118.28 74.4895 117.92C74.8629 117.547 75.0495 117.033 75.0495 116.38C75.0495 115.74 74.8629 115.247 74.4895 114.9C74.1162 114.54 73.5495 114.36 72.7895 114.36H70.4495V118.46ZM90.762 120.22C90.762 120.62 90.7354 120.98 90.682 121.3H82.582C82.6487 122.1 82.9287 122.727 83.422 123.18C83.9154 123.633 84.522 123.86 85.242 123.86C86.282 123.86 87.022 123.413 87.462 122.52H90.482C90.162 123.587 89.5487 124.467 88.642 125.16C87.7354 125.84 86.622 126.18 85.302 126.18C84.2354 126.18 83.2754 125.947 82.422 125.48C81.582 125 80.922 124.327 80.442 123.46C79.9754 122.593 79.742 121.593 79.742 120.46C79.742 119.313 79.9754 118.307 80.442 117.44C80.9087 116.573 81.562 115.907 82.402 115.44C83.242 114.973 84.2087 114.74 85.302 114.74C86.3554 114.74 87.2954 114.967 88.122 115.42C88.962 115.873 89.6087 116.52 90.062 117.36C90.5287 118.187 90.762 119.14 90.762 120.22ZM87.862 119.42C87.8487 118.7 87.5887 118.127 87.082 117.7C86.5754 117.26 85.9554 117.04 85.222 117.04C84.5287 117.04 83.942 117.253 83.462 117.68C82.9954 118.093 82.7087 118.673 82.602 119.42H87.862ZM97.0458 126.18C96.1391 126.18 95.3258 126.02 94.6058 125.7C93.8858 125.367 93.3124 124.92 92.8858 124.36C92.4724 123.8 92.2458 123.18 92.2058 122.5H95.0258C95.0791 122.927 95.2858 123.28 95.6458 123.56C96.0191 123.84 96.4791 123.98 97.0258 123.98C97.5591 123.98 97.9724 123.873 98.2658 123.66C98.5724 123.447 98.7258 123.173 98.7258 122.84C98.7258 122.48 98.5391 122.213 98.1658 122.04C97.8058 121.853 97.2258 121.653 96.4258 121.44C95.5991 121.24 94.9191 121.033 94.3858 120.82C93.8658 120.607 93.4124 120.28 93.0258 119.84C92.6524 119.4 92.4658 118.807 92.4658 118.06C92.4658 117.447 92.6391 116.887 92.9858 116.38C93.3458 115.873 93.8524 115.473 94.5058 115.18C95.1724 114.887 95.9524 114.74 96.8458 114.74C98.1658 114.74 99.2191 115.073 100.006 115.74C100.792 116.393 101.226 117.28 101.306 118.4H98.6258C98.5858 117.96 98.3991 117.613 98.0658 117.36C97.7458 117.093 97.3124 116.96 96.7658 116.96C96.2591 116.96 95.8658 117.053 95.5858 117.24C95.3191 117.427 95.1858 117.687 95.1858 118.02C95.1858 118.393 95.3724 118.68 95.7458 118.88C96.1191 119.067 96.6991 119.26 97.4858 119.46C98.2858 119.66 98.9458 119.867 99.4658 120.08C99.9858 120.293 100.432 120.627 100.806 121.08C101.192 121.52 101.392 122.107 101.406 122.84C101.406 123.48 101.226 124.053 100.866 124.56C100.519 125.067 100.012 125.467 99.3458 125.76C98.6924 126.04 97.9258 126.18 97.0458 126.18ZM114.164 114.92V126H111.344V124.6C110.984 125.08 110.511 125.46 109.924 125.74C109.351 126.007 108.724 126.14 108.044 126.14C107.178 126.14 106.411 125.96 105.744 125.6C105.078 125.227 104.551 124.687 104.164 123.98C103.791 123.26 103.604 122.407 103.604 121.42V114.92H106.404V121.02C106.404 121.9 106.624 122.58 107.064 123.06C107.504 123.527 108.104 123.76 108.864 123.76C109.638 123.76 110.244 123.527 110.684 123.06C111.124 122.58 111.344 121.9 111.344 121.02V114.92H114.164ZM119.727 111.2V126H116.927V111.2H119.727ZM125.753 117.22V122.58C125.753 122.953 125.84 123.227 126.013 123.4C126.2 123.56 126.507 123.64 126.933 123.64H128.233V126H126.473C124.113 126 122.933 124.853 122.933 122.56V117.22H121.613V114.92H122.933V112.18H125.753V114.92H128.233V117.22H125.753ZM129.527 120.42C129.527 119.3 129.747 118.307 130.187 117.44C130.641 116.573 131.247 115.907 132.007 115.44C132.781 114.973 133.641 114.74 134.587 114.74C135.414 114.74 136.134 114.907 136.747 115.24C137.374 115.573 137.874 115.993 138.247 116.5V114.92H141.067V126H138.247V124.38C137.887 124.9 137.387 125.333 136.747 125.68C136.121 126.013 135.394 126.18 134.567 126.18C133.634 126.18 132.781 125.94 132.007 125.46C131.247 124.98 130.641 124.307 130.187 123.44C129.747 122.56 129.527 121.553 129.527 120.42ZM138.247 120.46C138.247 119.78 138.114 119.2 137.847 118.72C137.581 118.227 137.221 117.853 136.767 117.6C136.314 117.333 135.827 117.2 135.307 117.2C134.787 117.2 134.307 117.327 133.867 117.58C133.427 117.833 133.067 118.207 132.787 118.7C132.521 119.18 132.387 119.753 132.387 120.42C132.387 121.087 132.521 121.673 132.787 122.18C133.067 122.673 133.427 123.053 133.867 123.32C134.321 123.587 134.801 123.72 135.307 123.72C135.827 123.72 136.314 123.593 136.767 123.34C137.221 123.073 137.581 122.7 137.847 122.22C138.114 121.727 138.247 121.14 138.247 120.46ZM143.082 120.42C143.082 119.3 143.302 118.307 143.742 117.44C144.195 116.573 144.809 115.907 145.582 115.44C146.355 114.973 147.215 114.74 148.162 114.74C148.882 114.74 149.569 114.9 150.222 115.22C150.875 115.527 151.395 115.94 151.782 116.46V111.2H154.622V126H151.782V124.36C151.435 124.907 150.949 125.347 150.322 125.68C149.695 126.013 148.969 126.18 148.142 126.18C147.209 126.18 146.355 125.94 145.582 125.46C144.809 124.98 144.195 124.307 143.742 123.44C143.302 122.56 143.082 121.553 143.082 120.42ZM151.802 120.46C151.802 119.78 151.669 119.2 151.402 118.72C151.135 118.227 150.775 117.853 150.322 117.6C149.869 117.333 149.382 117.2 148.862 117.2C148.342 117.2 147.862 117.327 147.422 117.58C146.982 117.833 146.622 118.207 146.342 118.7C146.075 119.18 145.942 119.753 145.942 120.42C145.942 121.087 146.075 121.673 146.342 122.18C146.622 122.673 146.982 123.053 147.422 123.32C147.875 123.587 148.355 123.72 148.862 123.72C149.382 123.72 149.869 123.593 150.322 123.34C150.775 123.073 151.135 122.7 151.402 122.22C151.669 121.727 151.802 121.14 151.802 120.46ZM162.277 126.18C161.21 126.18 160.25 125.947 159.397 125.48C158.543 125 157.87 124.327 157.377 123.46C156.897 122.593 156.657 121.593 156.657 120.46C156.657 119.327 156.903 118.327 157.397 117.46C157.903 116.593 158.59 115.927 159.457 115.46C160.323 114.98 161.29 114.74 162.357 114.74C163.423 114.74 164.39 114.98 165.257 115.46C166.123 115.927 166.803 116.593 167.297 117.46C167.803 118.327 168.057 119.327 168.057 120.46C168.057 121.593 167.797 122.593 167.277 123.46C166.77 124.327 166.077 125 165.197 125.48C164.33 125.947 163.357 126.18 162.277 126.18ZM162.277 123.74C162.783 123.74 163.257 123.62 163.697 123.38C164.15 123.127 164.51 122.753 164.777 122.26C165.043 121.767 165.177 121.167 165.177 120.46C165.177 119.407 164.897 118.6 164.337 118.04C163.79 117.467 163.117 117.18 162.317 117.18C161.517 117.18 160.843 117.467 160.297 118.04C159.763 118.6 159.497 119.407 159.497 120.46C159.497 121.513 159.757 122.327 160.277 122.9C160.81 123.46 161.477 123.74 162.277 123.74Z" fill="#29295B"/>
<defs>
<clipPath id="clip0_203_163">
<rect width="24" height="24" fill="white" transform="translate(106 44)"/>
</clipPath>
</defs>
</svg>
