<svg width="49" height="48" viewBox="0 0 49 48" fill="none" xmlns="http://www.w3.org/2000/svg">
<circle cx="24.5" cy="24" r="24" fill="#29295B"/>
<g clip-path="url(#clip0_203_141)">
<rect width="24" height="24" transform="translate(12.5 12)" fill="#29295B"/>
<path d="M29.2852 14.4741L30.5202 12.4641C30.8082 11.9921 31.4242 11.8461 31.8952 12.1361C32.3662 12.4251 32.5132 13.0401 32.2232 13.5111L30.9882 15.5211C30.8002 15.8291 30.4712 15.9981 30.1352 15.9981C29.9562 15.9981 29.7762 15.9501 29.6132 15.8501C29.1422 15.5611 28.9952 14.9451 29.2852 14.4741ZM17.9272 15.5201C18.1152 15.8281 18.4452 15.9981 18.7812 15.9981C18.9592 15.9981 19.1392 15.9501 19.3022 15.8511C19.7732 15.5621 19.9212 14.9471 19.6322 14.4761L18.3992 12.4651C18.1102 11.9941 17.4942 11.8471 17.0242 12.1351C16.5532 12.4241 16.4052 13.0391 16.6942 13.5101L17.9272 15.5201ZM15.7412 17.7281L13.9432 16.8671C13.4472 16.6261 12.8462 16.8381 12.6102 17.3371C12.3712 17.8351 12.5822 18.4321 13.0802 18.6701L14.8782 19.5311C15.0172 19.5981 15.1642 19.6301 15.3092 19.6301C15.6822 19.6301 16.0402 19.4211 16.2112 19.0621C16.4502 18.5641 16.2392 17.9661 15.7412 17.7281ZM24.3642 16.0011C18.8502 16.0921 14.4802 22.0681 17.4742 27.8241C17.9292 28.6981 18.6042 29.4301 19.3292 30.0971C19.6042 30.3501 19.8172 30.6631 19.9992 30.9991H23.5002V25.8151C22.3392 25.4011 21.5002 24.3011 21.5002 22.9991C21.5002 22.4461 21.9472 21.9991 22.5002 21.9991C23.0532 21.9991 23.5002 22.4461 23.5002 22.9991C23.5002 23.5521 23.9482 23.9991 24.5002 23.9991C25.0522 23.9991 25.5002 23.5511 25.5002 22.9991C25.5002 22.4471 25.9472 21.9991 26.5002 21.9991C27.0532 21.9991 27.5002 22.4461 27.5002 22.9991C27.5002 24.3011 26.6612 25.4011 25.5002 25.8151V30.9991H28.9682C29.1962 30.6081 29.4902 30.239 29.8752 29.9181C30.5342 29.3681 31.1542 28.7551 31.5352 27.9861C33.2722 24.4731 32.5832 20.7271 30.1092 18.2951C28.5682 16.7791 26.5272 15.9681 24.3642 16.0011ZM20.4922 33.2781C20.4122 34.7441 21.5102 36.0001 22.9782 36.0001H25.9992C27.3802 36.0001 28.4992 34.8811 28.4992 33.5001V33.0001H20.4812C20.4812 33.0941 20.4982 33.1821 20.4922 33.2781ZM36.4132 17.3001C36.1852 16.7971 35.5942 16.5701 35.0912 16.8001L33.1592 17.6721C32.6552 17.8991 32.4312 18.4911 32.6592 18.9941C32.8262 19.3641 33.1892 19.5831 33.5712 19.5831C33.7082 19.5831 33.8482 19.5551 33.9812 19.4941L35.9132 18.6221C36.4172 18.3951 36.6412 17.8031 36.4132 17.3001Z" fill="white"/>
</g>
<defs>
<clipPath id="clip0_203_141">
<rect width="24" height="24" fill="white" transform="translate(12.5 12)"/>
</clipPath>
</defs>
</svg>
