<svg width="49" height="48" viewBox="0 0 49 48" fill="none" xmlns="http://www.w3.org/2000/svg">
<circle cx="24.5" cy="24" r="24" fill="#29295B"/>
<g clip-path="url(#clip0_493_102)">
<path d="M27.9285 21H28.0005C29.6545 21 31.0005 19.654 31.0005 18V15C31.0005 13.346 29.6545 12 28.0005 12H22.0005C20.3465 12 19.0005 13.346 19.0005 15V18C19.0005 19.654 20.3465 21 22.0005 21H22.2025L24.0365 22.617C24.3265 22.873 24.6895 23.001 25.0525 23.001C25.4105 23.001 25.7685 22.875 26.0505 22.625L27.9285 21.001V21ZM18.5005 30C20.4305 30 22.0005 28.43 22.0005 26.5C22.0005 24.57 20.4305 23 18.5005 23C16.5705 23 15.0005 24.57 15.0005 26.5C15.0005 28.43 16.5705 30 18.5005 30ZM28.0005 26.5C28.0005 28.43 29.5705 30 31.5005 30C33.4305 30 35.0005 28.43 35.0005 26.5C35.0005 24.57 33.4305 23 31.5005 23C29.5705 23 28.0005 24.57 28.0005 26.5ZM18.5005 31C16.0665 31 13.8825 32.466 13.0635 34.649C12.9485 34.956 12.9915 35.3 13.1775 35.57C13.3655 35.84 13.6715 36 13.9995 36H22.9995C23.3275 36 23.6345 35.839 23.8215 35.57C24.0085 35.3 24.0505 34.956 23.9355 34.649C23.1175 32.466 20.9325 31 18.4985 31H18.5005ZM36.9375 34.649C36.1195 32.466 33.9345 31 31.5005 31C29.0665 31 26.8825 32.466 26.0635 34.649C25.9485 34.956 25.9915 35.3 26.1775 35.57C26.3655 35.84 26.6715 36 26.9995 36H35.9995C36.3275 36 36.6345 35.839 36.8215 35.57C37.0085 35.3 37.0505 34.956 36.9355 34.649H36.9375Z" fill="white"/>
</g>
<defs>
<clipPath id="clip0_493_102">
<rect width="24" height="24" fill="white" transform="translate(13 12)"/>
</clipPath>
</defs>
</svg>
