<svg width="49" height="48" viewBox="0 0 49 48" fill="none" xmlns="http://www.w3.org/2000/svg">
<circle cx="24.5" cy="24" r="24" fill="#29295B"/>
<g clip-path="url(#clip0_203_165)">
<path d="M37 35C37 35.552 36.552 36 36 36H16C14.346 36 13 34.654 13 33V13C13 12.448 13.448 12 14 12C14.552 12 15 12.448 15 13V33C15 33.551 15.449 34 16 34H36C36.552 34 37 34.448 37 35ZM34 17H30C29.448 17 29 17.448 29 18C29 18.552 29.448 19 30 19H33.563L28.706 23.707C28.329 24.085 27.67 24.085 27.293 23.707C27.252 23.667 26.054 22.814 26.054 22.814C24.916 21.741 22.977 21.781 21.892 22.865L17.306 27.279C16.908 27.662 16.896 28.295 17.279 28.693C17.476 28.897 17.737 29 18 29C18.25 29 18.5 28.907 18.693 28.721L23.293 24.293C23.67 23.915 24.329 23.915 24.706 24.293C24.747 24.333 25.945 25.186 25.945 25.186C27.084 26.26 29.021 26.222 30.109 25.132L34.999 20.392V23.999C34.999 24.551 35.447 24.999 35.999 24.999C36.551 24.999 36.999 24.551 36.999 23.999V19.999C36.999 18.345 35.653 16.999 33.999 16.999L34 17Z" fill="white"/>
</g>
<defs>
<clipPath id="clip0_203_165">
<rect width="24" height="24" fill="white" transform="translate(13 12)"/>
</clipPath>
</defs>
</svg>
